<svg xmlns="http://www.w3.org/2000/svg" viewBox="0 0 24 24">
  <circle cx="12" cy="12" r="12" fill="#1ed760"/>
  <path fill="#000000" d="M17.65 16.42c-.2.33-.62.43-.95.22-2.6-1.59-5.87-1.95-9.72-1.07-.37.09-.74-.14-.83-.51-.09-.37.14-.74.51-.83 4.21-.96 7.83-.55 10.74 1.24.33.21.43.62.25.95zm1.24-2.76c-.25.41-.78.54-1.19.29-2.97-1.83-7.5-2.36-11.02-1.29-.46.14-.94-.12-1.08-.57-.14-.46.12-.94.57-1.08 4.01-1.22 8.99-.63 12.43 1.47.41.25.54.78.29 1.18zm.11-2.87c-3.56-2.11-9.44-2.31-12.84-1.28-.54.17-1.12-.14-1.29-.68-.17-.54.14-1.12.68-1.29 3.9-1.18 10.38-.96 14.47 1.48.49.29.65.92.36 1.41-.29.49-.92.65-1.38.36z"/>
</svg>